<svg xmlns="http://www.w3.org/2000/svg" width="1024" height="1024" viewBox="0 0 1024 1024">
  <rect width="1024" height="1024" rx="224" fill="#F15929"/>

  <circle cx="300" cy="330" r="96" fill="#FFF7F0"/>
  <circle cx="724" cy="330" r="96" fill="#FFF7F0"/>
  <circle cx="300" cy="330" r="50" fill="#F8A6A0"/>
  <circle cx="724" cy="330" r="50" fill="#F8A6A0"/>

  <ellipse cx="512" cy="524" rx="268" ry="288" fill="#FFF7F0"/>

  <rect x="468" y="228" width="88" height="142" rx="42" fill="#F15929"/>
  <rect x="468" y="386" width="88" height="72" rx="36" fill="#F15929"/>

  <rect x="292" y="432" width="126" height="74" rx="37" fill="#F15929"/>
  <rect x="606" y="432" width="126" height="74" rx="37" fill="#F15929"/>
  <rect x="260" y="576" width="132" height="74" rx="37" fill="#F15929"/>
  <rect x="632" y="576" width="132" height="74" rx="37" fill="#F15929"/>

  <ellipse cx="408" cy="526" rx="35" ry="38" fill="#7D3418"/>
  <ellipse cx="616" cy="526" rx="35" ry="38" fill="#7D3418"/>
  <ellipse cx="512" cy="604" rx="43" ry="36" fill="#7D3418"/>
  <rect x="482" y="632" width="60" height="78" rx="30" fill="#7D3418"/>
  <circle cx="474" cy="694" r="58" fill="#7D3418"/>
  <circle cx="550" cy="694" r="58" fill="#7D3418"/>
  <rect x="416" y="630" width="192" height="70" fill="#FFF7F0"/>
  <circle cx="496" cy="672" r="36" fill="#FFF7F0"/>
  <circle cx="528" cy="672" r="36" fill="#FFF7F0"/>

  <ellipse cx="350" cy="626" rx="56" ry="38" fill="#F8A6A0"/>
  <ellipse cx="674" cy="626" rx="56" ry="38" fill="#F8A6A0"/>
</svg>
