<svg xmlns="http://www.w3.org/2000/svg" width="1024" height="1024" viewBox="0 0 1024 1024">
  <!-- Android themed (monochrome) icon: solid tiger-head silhouette with cut-out
       eyes/nose. Single colour + alpha; Android tints it. -->
  <g transform="translate(512 512) scale(0.82) translate(-512 -512)" fill="#000000" fill-rule="evenodd">
    <path d="M204 330a96 96 0 1 1 192 0 96 96 0 0 1-192 0Z
             M628 330a96 96 0 1 1 192 0 96 96 0 0 1-192 0Z
             M244 524a268 288 0 1 1 536 0 268 288 0 0 1-536 0Z
             M373 526a35 38 0 1 0 70 0 35 38 0 0 0-70 0Z
             M581 526a35 38 0 1 0 70 0 35 38 0 0 0-70 0Z
             M469 604a43 36 0 1 0 86 0 43 36 0 0 0-86 0Z"/>
  </g>
</svg>
